<svg xmlns="http://www.w3.org/2000/svg" width="64" height="64" viewBox="0 0 34 34">
  <defs>
    <linearGradient id="g" x1="0" y1="0" x2="1" y2="1">
      <stop offset="0" stop-color="#DCC07A"/>
      <stop offset="0.55" stop-color="#B8862B"/>
      <stop offset="1" stop-color="#7A5512"/>
    </linearGradient>
  </defs>
  <rect x="1" y="1" width="32" height="32" rx="9" fill="url(#g)"/>
  <path d="M11 23.5c0-3.6 2.6-5.2 5.4-6.2 2-0.7 3.1-1.4 3.1-2.8 0-1.2-1-2-2.6-2-1.8 0-2.9 1-3.2 2.6l-2.6-.6C11 13 12.9 11 16.9 11c3.2 0 5.4 1.7 5.4 4.3 0 2.7-2.1 3.9-4.6 4.8-2.1.8-3.2 1.4-3.2 2.9v.2h8.1V25H11Z" fill="#FFFFFF"/>
  <circle cx="13.1" cy="9.4" r="1.7" fill="#FFFFFF"/>
</svg>
