<svg xmlns="http://www.w3.org/2000/svg" width="1200" height="630" viewBox="0 0 1200 630" font-family="Georgia, 'Times New Roman', serif">
  <defs>
    <linearGradient id="brand" x1="0" y1="0" x2="1" y2="1">
      <stop offset="0" stop-color="#DCC07A"/>
      <stop offset="0.55" stop-color="#B8862B"/>
      <stop offset="1" stop-color="#7A5512"/>
    </linearGradient>
    <radialGradient id="glow" cx="82%" cy="18%" r="55%">
      <stop offset="0" stop-color="#F6ECD6"/>
      <stop offset="1" stop-color="#FCFBF8"/>
    </radialGradient>
  </defs>

  <rect width="1200" height="630" fill="url(#glow)"/>
  <rect x="0" y="0" width="1200" height="10" fill="url(#brand)"/>

  <!-- Wordmark -->
  <g transform="translate(90, 96)">
    <rect x="0" y="0" width="60" height="60" rx="16" fill="url(#brand)"/>
    <path d="M19 42c0-6.4 4.6-9.2 9.5-11 3.6-1.2 5.5-2.5 5.5-5 0-2.1-1.8-3.5-4.6-3.5-3.2 0-5.1 1.7-5.6 4.6l-4.6-1.1C19.8 21 23.2 17.5 30 17.5c5.6 0 9.5 3 9.5 7.6 0 4.7-3.7 6.9-8.1 8.4-3.7 1.4-5.6 2.5-5.6 5.1v.4h14.3V44H19Z" fill="#FFFFFF"/>
    <circle cx="22.7" cy="14.8" r="3" fill="#FFFFFF"/>
    <text x="78" y="44" font-size="40" font-weight="700" fill="#1A1714" letter-spacing="-1">inteli<tspan fill="#9A6E1E">Sentry</tspan></text>
  </g>

  <!-- Eyebrow -->
  <text x="92" y="270" font-family="Arial, Helvetica, sans-serif" font-size="22" font-weight="700" letter-spacing="6" fill="#7A5512">TELECONSULT-FIRST CARE</text>

  <!-- Headline -->
  <text x="90" y="350" font-size="72" font-weight="700" fill="#1A1714" letter-spacing="-2">See your doctor online first.</text>
  <text x="90" y="432" font-size="72" font-weight="700" fill="#1A1714" letter-spacing="-2">Visit the clinic <tspan fill="#9A6E1E">only when</tspan></text>
  <text x="90" y="514" font-size="72" font-weight="700" fill="#9A6E1E" letter-spacing="-2">you need to.</text>

  <!-- Subline -->
  <text x="92" y="572" font-family="Arial, Helvetica, sans-serif" font-size="26" fill="#6B645A">Same-day video consultations, with in-clinic follow-up and procedures.</text>

  <rect x="0" y="620" width="1200" height="10" fill="url(#brand)"/>
</svg>
